<?xml version="1.0" encoding="UTF-8"?>
<!DOCTYPE svg PUBLIC "-//W3C//DTD SVG 1.1//EN" "http://www.w3.org/Graphics/SVG/1.1/DTD/svg11.dtd">
<!-- Creator: CorelDRAW X7 -->
<svg xmlns="http://www.w3.org/2000/svg" xml:space="preserve" width="5.8622in" height="3.55906in" version="1.1" style="shape-rendering:geometricPrecision; text-rendering:geometricPrecision; image-rendering:optimizeQuality; fill-rule:evenodd; clip-rule:evenodd"
viewBox="0 0 5862 3559"
 xmlns:xlink="http://www.w3.org/1999/xlink">
 <defs>
  <style type="text/css">
   <![CDATA[
    .fil1 {fill:#FEFEFE}
    .fil0 {fill:#474443}
   ]]>
  </style>
 </defs>
 <g id="Layer_x0020_1">
  <metadata id="CorelCorpID_0Corel-Layer"/>
  <path class="fil0" d="M459 632c7,-98 10,-179 11,-242 56,2 123,2 202,2 71,0 138,0 200,-2 -7,99 -11,179 -13,242 -67,-2 -133,-3 -200,-3 -69,0 -136,1 -200,3zm402 133l-21 519 -10 480c-1,67 -2,106 -2,117 0,78 -6,145 -18,199 -12,55 -35,99 -71,131 -36,33 -80,57 -133,70 -52,13 -112,20 -179,20 -40,0 -89,-3 -147,-7 -58,-5 -123,-14 -194,-27 -4,-73 -13,-173 -27,-300 60,18 113,27 159,27 37,0 71,-7 101,-21 24,-11 42,-25 56,-43 13,-18 24,-41 31,-72 7,-26 13,-72 17,-136 9,-124 15,-277 20,-457 4,-153 5,-284 5,-396l0 -104c81,2 151,2 210,2 62,0 130,0 203,-2zm291 296c12,-67 20,-112 24,-138 3,-25 9,-64 16,-118 195,-43 363,-65 503,-65 80,0 153,9 219,27 67,18 119,47 156,87 37,40 56,97 56,172 0,38 -6,123 -16,256 -10,133 -17,307 -23,523 -66,-2 -133,-2 -198,-2 -64,0 -132,0 -204,2 9,-75 19,-229 31,-463 -26,13 -46,22 -61,27 -14,6 -40,14 -76,25 -37,11 -65,20 -86,28 -20,7 -38,17 -54,29 -15,11 -26,24 -32,36 -6,12 -10,26 -10,41 0,24 10,44 28,61 19,16 48,24 88,24 14,0 30,-1 46,-3 17,-3 39,-8 68,-18 -20,52 -44,127 -71,225 -59,10 -114,15 -166,15 -84,0 -154,-12 -210,-35 -56,-24 -99,-62 -129,-114 -30,-52 -45,-104 -45,-157 0,-32 5,-63 16,-93 12,-31 29,-61 53,-90 23,-29 51,-54 83,-75 32,-20 75,-40 130,-58 55,-19 125,-36 210,-52 35,-7 67,-14 97,-22 29,-8 50,-14 63,-20 12,-6 22,-13 30,-21 8,-8 13,-16 16,-24 4,-9 6,-17 6,-27 0,-26 -11,-46 -33,-60 -21,-14 -53,-21 -95,-21 -116,0 -260,33 -430,98zm1159 744c11,-101 19,-185 24,-249 9,-137 19,-296 29,-476 7,-120 12,-234 14,-344 3,-110 5,-217 5,-321 86,2 156,2 210,2 74,0 143,0 208,-2l-22 247c-3,40 -9,123 -16,247 22,-28 40,-50 55,-64 14,-13 29,-26 47,-38 17,-12 35,-22 53,-30 18,-8 38,-16 62,-21 23,-7 49,-12 77,-15 28,-3 57,-5 87,-5 58,0 113,7 167,20 54,12 100,35 138,67 38,32 63,68 77,108 13,40 20,83 20,131 0,18 0,42 -1,73 -1,30 -3,68 -6,114l-22 343c-3,43 -4,78 -4,107 -1,28 -1,63 -1,106 -70,-2 -138,-2 -203,-2 -72,0 -146,0 -221,2 12,-90 22,-194 31,-312 9,-118 13,-206 13,-263 0,-64 -13,-109 -40,-135 -27,-25 -62,-38 -106,-38 -40,0 -74,8 -105,24 -27,14 -51,37 -71,67 -17,25 -32,61 -44,108 -13,58 -24,143 -31,256 -5,62 -9,160 -13,293 -69,-2 -133,-2 -192,-2 -61,0 -134,0 -219,2zm2953 -298c-12,57 -22,113 -31,167l-23 125c-67,14 -120,23 -157,27 -38,4 -74,6 -110,6 -57,0 -109,-5 -154,-15 -44,-10 -82,-28 -112,-54 -30,-26 -50,-56 -61,-90 -11,-34 -16,-70 -16,-108 0,-7 0,-18 1,-36 1,-17 3,-56 7,-115l22 -353 -159 0c3,-47 6,-108 9,-185l3 -94 169 0c4,-31 9,-99 15,-204l175 -36c31,-7 100,-22 204,-48 -5,89 -9,185 -10,288l231 0c-6,141 -8,234 -8,279l-234 0 -12 255c-1,38 -2,62 -2,73 0,33 3,60 11,82 7,21 20,37 38,47 18,9 37,14 59,14 17,0 34,-1 51,-4 18,-2 49,-9 94,-21zm140 298c5,-91 10,-214 14,-369l210 3c23,0 82,-1 177,-3 -5,74 -11,197 -18,369l-177 -2c-13,0 -82,0 -206,2z"/>
  <path class="fil0" d="M3999 754c405,-361 -868,776 0,0zm-226 396c470,10 108,3 0,0 -36,0 53,-404 306,-470 360,-93 255,1256 252,1343 -6,201 -17,414 -13,639 32,1845 -570,-1437 -545,-1512z"/>
  <path class="fil0" d="M4538 3201c20,-155 35,-325 46,-511 10,-186 17,-363 18,-529 82,1 152,2 211,2 69,0 135,-1 198,-2l-9 138c23,-25 42,-44 58,-59 16,-14 36,-28 60,-42 25,-14 50,-25 77,-34 27,-9 57,-16 89,-20 32,-6 66,-8 101,-8 49,0 96,5 143,16 46,10 85,25 116,44 31,19 57,43 78,72 21,29 35,60 42,93 6,33 10,67 10,102 0,26 -3,82 -8,167l-17 369c-4,73 -6,140 -6,202 -68,-2 -132,-3 -192,-3 -81,0 -155,1 -221,3 6,-62 13,-154 20,-276 7,-122 11,-207 11,-257 0,-76 -15,-130 -44,-160 -30,-30 -67,-45 -112,-45 -40,0 -77,13 -112,39 -35,26 -62,63 -81,112 -19,49 -33,130 -40,243 -8,112 -13,227 -16,344 -68,-2 -134,-3 -199,-3 -67,0 -141,1 -221,3z"/>
  <ellipse class="fil1" cx="4077" cy="953" rx="125" ry="122"/>
 </g>
</svg>
